<?xml version="1.0" encoding="utf-8"?>
<!-- Generator: Adobe Illustrator 26.5.2, SVG Export Plug-In . SVG Version: 6.00 Build 0)  -->
<svg version="1.1" id="Layer_1" xmlns="http://www.w3.org/2000/svg" xmlns:xlink="http://www.w3.org/1999/xlink" x="0px" y="0px"
	 viewBox="0 0 458 436" style="enable-background:new 0 0 458 436;" xml:space="preserve">
<style type="text/css">
	.st0{fill:#770B7E;}
	.st1{fill:#DBBE70;}
	.st2{fill:#00873A;}
	.st3{fill:#FFFFFF;}
</style>
<g>
	<g>
		<polygon class="st0" points="244.7,263.5 244.7,264.2 243,263.9 		"/>
		<path class="st1" d="M195.3,223.1c-4.2,13.7-8.5,23.5-13,29.4l-13.1-2.4c0,0-78.3-43.9-106.6-98.8c0,0,59.5-15.8,99.2,19.8
			c0,0,32.4-111.6,7.4-162.9c0.9,0.9,44.2,44.5,64.8,89.2l-10.4,16.3c-0.8,5.4-2.1,17.1,0.9,25c-3.3,0.7-6.4,1.3-10.2,1.8
			c-0.3,2.1-0.8,4.3-1.3,6.4C207.3,177.6,201.4,203,195.3,223.1z"/>
		<polygon class="st2" points="238.2,107.3 237.7,106.1 237.7,106.1 		"/>
		<path class="st1" d="M240.5,231.7c2.4,6.2,6.7,16.3,12.9,30.2l-8.8,1.6l-1.7,0.3l-1.7-0.3l-51.1-9.5c3.2-4.7,6.1-11.2,8.9-19.3
			c0.9-2.9,3.9-13.7,8.7-32.7c4.9-18.9,8-32.4,9.3-40.4l11,34.5C232.8,210.4,236.9,222.3,240.5,231.7z"/>
		<path class="st1" d="M262.6,208.8c-3,12.6-5,20.7-6,24.4c-10.4-29-17-47.4-19.5-55.4c-2.5-7.9-5-17-7.6-27.4
			c5,10.3,11.7,20.7,20.4,27.2c3.4,3.1,6.6,5.4,9.6,7.1c3,1.7,5.7,2.8,8,3.5C266.3,193.3,264.6,200.3,262.6,208.8z"/>
		<path class="st1" d="M423.4,151.3c-38.6,63-106.5,98.8-106.5,98.8l-59.6,11.1l2-8.9c6-26.6,11.1-47.5,15.5-62.9
			c0.4,0,0.8,0,0.9,0.1c10.1,0.4,19.4-1,27.8-4.5c8.4-3.4,14.9-8.1,19.4-14c4.5-6,6.9-12.1,7.2-18.5c0.2-5-1.1-9.7-3.9-14.2
			c-2.9-4.4-7.2-8-13.2-10.8c-5.9-2.7-13.7-4.1-23.2-4.8c-13.9-0.9-12.2,0.2-29.8,3.4c0,0-5.4,8.7-4.5,7.7
			c8.9-2.5,21.4-5.5,29.7-5.2c9.7,0.5,16.8,2.7,21.3,6.7c4.6,4.1,6.7,9.4,6.4,15.9c-0.3,6.6-2.5,12.7-6.6,18.3
			c-4.1,5.6-8.7,9.4-13.7,11.4c-3.9,1.6-11,1.8-15.9,1.6c0.5-1.7,1-3.3,1.5-4.9c4.6-14.4,12-30.2,15.9-34.7c-1.1,1-5.9,3-12.5,6.8
			l0,0c-0.2,0.3-0.4,0.5-0.6,0.8c-3.5,5.8-7.1,14.8-10.8,27.1c-0.2,0.7-0.4,1.5-0.7,2.4l-5.9-3.4L247,164.6c0,0,0,0-0.1,0
			c-12.3-11.4-19.2-51.3-11.1-56.1c1.4-0.5,2.4-0.9,2.4-1l0,0l0.5,1.4c1.8,4.9,3.2,9.8,4.2,14.5c11.1-52,72.8-114.1,73.8-115.2
			c-25,51.3,31.4,143.1,31.4,143.1C402.2,135.5,423.4,151.3,423.4,151.3z"/>
		<polygon class="st0" points="243,263.9 241.3,264.2 241.3,263.5 		"/>
	</g>
	<g>
		<path class="st3" d="M237.7,106.1L237.7,106.1l0.5,1.3L237.7,106.1z"/>
		<polygon class="st3" points="238.9,109.3 238.2,107.5 238.8,108.9 		"/>
		<path class="st3" d="M253.5,261.9c0.8,1.7,1.6,3.5,2.4,5.3l1.4-6L253.5,261.9z M235,95.8l-1,1.6c1.3,2.9,2.6,5.8,3.7,8.7l-0.1,0
			l0.5,1.2c0,0,0,0.1,0,0.1l0,0l2.6,1.8l-1.3-4.1L235,95.8z"/>
		<path class="st3" d="M326.2,138.4c-2.9-4.4-7.2-8-13.2-10.8c-5.9-2.7-13.7-4.1-23.2-4.8c-13.9-0.9-12.2,0.2-29.8,3.4
			c0,0-5.4,8.7-4.5,7.7c8.9-2.5,21.4-5.5,29.7-5.2c9.7,0.5,16.8,2.7,21.3,6.7c4.6,4.1,6.7,9.4,6.4,15.9c-0.3,6.6-2.5,12.7-6.6,18.3
			c-4.1,5.6-8.7,9.4-13.7,11.4c-3.9,1.6-11,1.8-15.9,1.6c0.5-1.7,1-3.3,1.5-4.9c4.6-14.4,12-30.2,15.9-34.7c-1.1,1-5.9,3-12.5,6.8
			l0,0c-0.2,0.3-0.4,0.5-0.6,0.8c-3.5,5.8-7.1,14.8-10.8,27.1c-0.2,0.7-0.4,1.5-0.7,2.4l-5.9-3.4L247,164.6c0,0,0,0-0.1,0
			c-12.3-11.4-19.2-51.3-11.1-56.1c1.4-0.5,2.4-0.9,2.4-1c0,0,0-0.1,0-0.1l-0.5-1.2l0.1,0c-1.1-2.9-2.4-5.8-3.7-8.7l-10.4,16.3
			c-0.8,5.4-2.1,17.1,0.9,25c-3.3,0.7-6.4,1.3-10.2,1.8c-0.3,2.1-0.8,4.3-1.3,6.4c-5.7,30.8-11.6,56.3-17.7,76.3
			c-4.2,13.7-8.5,23.5-13,29.4l8,1.5c3.2-4.7,6.1-11.2,8.9-19.3c0.9-2.9,3.9-13.7,8.7-32.7c4.9-18.9,8-32.4,9.3-40.4l11,34.5
			c4.6,14.3,8.7,26.2,12.3,35.6c2.4,6.2,6.7,16.3,12.9,30.2l3.8-0.7l2-8.9c6-26.6,11.1-47.5,15.5-62.9c0.4,0,0.8,0,0.9,0.1
			c10.1,0.4,19.4-1,27.8-4.5c8.4-3.4,14.9-8.1,19.4-14c4.5-6,6.9-12.1,7.2-18.5C330.3,147.6,329,142.8,326.2,138.4z M262.6,208.8
			c-3,12.6-5,20.7-6,24.4c-10.4-29-17-47.4-19.5-55.4c-2.5-7.9-5-17-7.6-27.4c5,10.3,11.7,20.7,20.4,27.2c3.4,3.1,6.6,5.4,9.6,7.1
			c3,1.7,5.7,2.8,8,3.5C266.3,193.3,264.6,200.3,262.6,208.8z"/>
	</g>
	<g>
		<path class="st1" d="M94,334.2l-23.3-21l1.8,1l0.1,18.8h-6.1V301h0.3l22.8,21l-1.3-0.6L88,302.2h6.1v32H94z"/>
		<path class="st1" d="M129.5,302.2h6.1v30.7h-6.1V302.2z"/>
		<path class="st1" d="M194,330.4c-0.3,0.3-1,0.7-1.9,1.1c-0.9,0.5-2,0.9-3.3,1.3c-1.3,0.4-2.8,0.5-4.3,0.5
			c-2.4-0.1-4.6-0.5-6.5-1.3c-1.9-0.8-3.5-1.9-4.8-3.4c-1.3-1.4-2.3-3-3-4.9c-0.7-1.8-1-3.8-1-5.9c0-2.3,0.4-4.5,1.1-6.4
			c0.7-1.9,1.7-3.6,3-5.1c1.3-1.4,2.9-2.5,4.7-3.3c1.8-0.8,3.9-1.2,6.1-1.2c2.1,0,3.9,0.3,5.5,0.8c1.6,0.6,2.9,1.2,3.9,1.8l-2.4,5.7
			c-0.7-0.5-1.6-1.1-2.8-1.6c-1.2-0.6-2.5-0.9-4-0.9c-1.2,0-2.3,0.2-3.4,0.7c-1.1,0.5-2,1.2-2.8,2.1c-0.8,0.9-1.5,1.9-1.9,3.1
			c-0.5,1.2-0.7,2.5-0.7,3.9c0,1.5,0.2,2.8,0.6,4.1c0.4,1.2,1.1,2.3,1.9,3.2c0.8,0.9,1.8,1.6,2.9,2c1.1,0.5,2.4,0.7,3.8,0.7
			c1.6,0,3-0.3,4.2-0.8c1.2-0.5,2.1-1.1,2.7-1.7L194,330.4z"/>
		<path class="st1" d="M225.6,317.6c0-2.1,0.4-4.1,1.2-6c0.8-1.9,1.9-3.6,3.4-5c1.4-1.5,3.1-2.6,5-3.4c1.9-0.8,3.9-1.3,6.1-1.3
			c2.1,0,4.2,0.4,6.1,1.3c1.9,0.8,3.6,2,5,3.4c1.5,1.5,2.6,3.1,3.4,5c0.8,1.9,1.2,3.9,1.2,6c0,2.2-0.4,4.2-1.2,6.1
			c-0.8,1.9-2,3.6-3.4,5c-1.5,1.4-3.1,2.6-5,3.4c-1.9,0.8-3.9,1.2-6.1,1.2c-2.2,0-4.2-0.4-6.1-1.2c-1.9-0.8-3.6-1.9-5-3.4
			c-1.4-1.4-2.6-3.1-3.4-5C226,321.8,225.6,319.8,225.6,317.6z M231.9,317.6c0,1.4,0.2,2.6,0.7,3.8c0.5,1.2,1.2,2.2,2,3.1
			c0.9,0.9,1.9,1.6,3,2.1c1.2,0.5,2.4,0.8,3.8,0.8c1.3,0,2.5-0.2,3.7-0.8c1.1-0.5,2.1-1.2,2.9-2.1c0.8-0.9,1.5-1.9,2-3.1
			c0.5-1.2,0.7-2.5,0.7-3.8c0-1.4-0.2-2.7-0.7-3.9c-0.5-1.2-1.2-2.2-2-3.2c-0.8-0.9-1.8-1.6-3-2.1c-1.1-0.5-2.4-0.8-3.7-0.8
			c-1.3,0-2.6,0.2-3.7,0.8c-1.1,0.5-2.1,1.2-3,2.1c-0.9,0.9-1.5,2-2,3.2C232.1,314.9,231.9,316.2,231.9,317.6z"/>
		<path class="st1" d="M290.5,302.2h6.1v24.9H311v5.8h-20.5V302.2z"/>
		<path class="st1" d="M341.2,332.9l13.9-31.9h0.3l13.9,31.9h-7l-8.9-22.5l4.4-3l-10.6,25.5H341.2z M350.7,321.8h9.2l2.1,5.1h-13.2
			L350.7,321.8z M363,293.7l-6.2,5.6h-3.5l3.3-5.6H363z"/>
		<path class="st1" d="M417.6,309.6c-1.2-0.6-2.4-1.2-3.6-1.6c-1.2-0.4-2.3-0.6-3.4-0.6c-1.3,0-2.3,0.3-3.1,0.8
			c-0.8,0.5-1.1,1.3-1.1,2.4c0,0.7,0.3,1.4,0.9,1.9c0.6,0.6,1.3,1.1,2.2,1.5c0.9,0.5,1.8,0.9,2.8,1.2c0.9,0.3,1.8,0.7,2.7,1.2
			c0.9,0.5,1.7,1,2.4,1.7c0.7,0.7,1.3,1.5,1.7,2.5c0.4,1,0.6,2.3,0.6,3.7c0,1.6-0.4,3-1.2,4.3c-0.8,1.3-2,2.4-3.5,3.2
			c-1.6,0.8-3.5,1.2-5.8,1.2c-1.2,0-2.4-0.1-3.6-0.4c-1.2-0.2-2.4-0.6-3.6-1.1c-1.2-0.5-2.3-1.1-3.4-1.9l2.7-4.7
			c0.7,0.5,1.5,1,2.4,1.4c0.8,0.4,1.7,0.7,2.6,0.9c0.9,0.2,1.7,0.3,2.4,0.3c0.7,0,1.5-0.1,2.2-0.3c0.7-0.2,1.4-0.6,1.8-1.1
			c0.5-0.5,0.7-1.2,0.7-2.1c0-0.6-0.2-1.2-0.6-1.7c-0.4-0.5-0.9-1-1.6-1.4c-0.7-0.4-1.4-0.8-2.2-1.1c-0.9-0.4-1.9-0.8-2.9-1.2
			c-1-0.5-1.9-1-2.8-1.7c-0.9-0.7-1.6-1.5-2.1-2.5c-0.5-1-0.8-2.3-0.8-3.7c0-1.8,0.4-3.3,1.2-4.6c0.8-1.3,1.9-2.3,3.4-3.1
			c1.4-0.8,3.1-1.2,5-1.3c2.5,0,4.5,0.3,6,0.9c1.5,0.6,2.9,1.3,4.2,2.1L417.6,309.6z"/>
		<path class="st1" d="M66.4,374.7v-32h0l17.1,24.2l-2.6-0.6l17-23.6h0.1v32H92v-18.3l0.4,3.1L82,374.3h-0.1l-10.7-14.8l1-2.9v18.1
			H66.4z"/>
		<path class="st1" d="M140.3,374.7l13.9-31.9h0.3l13.9,31.9h-7l-8.9-22.5l4.4-3l-10.6,25.5H140.3z M149.8,363.6h9.2l2.1,5.1h-13.2
			L149.8,363.6z"/>
		<path class="st1" d="M219.9,343.9c1.9,0,3.6,0.2,5.1,0.7c1.5,0.5,2.8,1.2,3.8,2.1c1,0.9,1.8,2,2.3,3.3c0.5,1.3,0.8,2.7,0.8,4.3
			c0,1.3-0.2,2.5-0.6,3.8c-0.4,1.3-1,2.4-1.8,3.4c-0.9,1-2,1.9-3.4,2.5c-1.4,0.6-3.1,0.9-5.2,0.9h-4.3v9.8h-6.1v-30.7H219.9z
			 M221,359.1c0.9,0,1.7-0.2,2.3-0.5c0.6-0.3,1.1-0.7,1.4-1.2c0.3-0.5,0.6-1,0.8-1.5c0.2-0.5,0.2-1,0.2-1.4c0-0.3,0-0.8-0.1-1.3
			c-0.1-0.5-0.3-1-0.6-1.6c-0.3-0.5-0.8-1-1.4-1.3c-0.6-0.4-1.5-0.5-2.5-0.5h-4.3v9.3H221z M226.6,362.8l7.6,11.9h-7.1l-7.8-11.7
			L226.6,362.8z"/>
		<path class="st1" d="M274.3,343.9H295v5.8h-7.5v24.9h-6.1v-24.9h-7.2V343.9z"/>
		<path class="st1" d="M338.6,343.9h6.1v30.7h-6.1V343.9z M349.4,336.3l-6.2,5.6h-3.5l3.3-5.6H349.4z"/>
		<path class="st1" d="M417.9,375.9l-23.3-21l1.8,1l0.1,18.8h-6.1v-31.9h0.2l22.8,21l-1.3-0.6l-0.1-19.2h6.1v32H417.9z"/>
		<path class="st1" d="M75.8,385.7c2.5,0,4.7,0.4,6.4,1.3c1.8,0.9,3.1,2,4,3.6c0.9,1.5,1.4,3.4,1.4,5.5c0,1.3-0.2,2.5-0.6,3.8
			c-0.4,1.3-1,2.4-1.8,3.4c-0.8,1-1.9,1.9-3.3,2.5c-1.4,0.6-3.1,0.9-5.1,0.9h-4.3v9.7h-6.1v-30.7H75.8z M76.8,400.8
			c0.9,0,1.7-0.2,2.3-0.5c0.6-0.3,1.1-0.7,1.4-1.2c0.3-0.5,0.6-1,0.8-1.5c0.2-0.5,0.2-1,0.2-1.4c0-0.3,0-0.7-0.1-1.2
			c-0.1-0.5-0.3-1-0.6-1.6c-0.3-0.5-0.8-1-1.4-1.3c-0.6-0.4-1.5-0.5-2.5-0.5h-4.3v9.3H76.8z"/>
		<path class="st1" d="M130.3,385.7h21v5.8h-14.9v6.6h13.2v5.8h-13.2v6.6h15.5v5.8h-21.5V385.7z"/>
		<path class="st1" d="M195.4,385.7h6.1v24.9h14.5v5.8h-20.5V385.7z"/>
		<path class="st1" d="M264.9,405.1c0,1,0.3,1.9,0.9,2.8c0.6,0.9,1.4,1.6,2.3,2.2c1,0.6,2,0.8,3.2,0.8c1.3,0,2.4-0.3,3.3-0.8
			c1-0.6,1.7-1.3,2.3-2.2c0.6-0.9,0.9-1.8,0.9-2.8v-19.4h6v19.5c0,2.3-0.6,4.3-1.7,6c-1.1,1.7-2.6,3.1-4.5,4.1c-1.9,1-4,1.5-6.3,1.5
			c-2.3,0-4.4-0.5-6.2-1.5c-1.9-1-3.4-2.4-4.5-4.1c-1.1-1.7-1.7-3.7-1.7-6v-19.5h6.1V405.1z"/>
		<path class="st1" d="M344.7,393.1c-1.2-0.6-2.4-1.2-3.6-1.6c-1.2-0.4-2.3-0.6-3.4-0.6c-1.3,0-2.3,0.3-3.1,0.8
			c-0.8,0.5-1.1,1.3-1.1,2.4c0,0.7,0.3,1.4,0.9,1.9c0.6,0.6,1.3,1.1,2.2,1.5c0.9,0.4,1.8,0.8,2.8,1.2c0.9,0.3,1.8,0.7,2.7,1.2
			c0.9,0.5,1.7,1,2.4,1.7c0.7,0.7,1.3,1.5,1.7,2.5c0.4,1,0.6,2.3,0.6,3.7c0,1.6-0.4,3-1.2,4.3c-0.8,1.3-2,2.4-3.5,3.2
			c-1.6,0.8-3.5,1.2-5.8,1.2c-1.2,0-2.4-0.1-3.6-0.4c-1.2-0.2-2.4-0.6-3.6-1.1c-1.2-0.5-2.3-1.1-3.4-1.9l2.7-4.7
			c0.7,0.5,1.5,1,2.4,1.4c0.8,0.4,1.7,0.7,2.6,0.9c0.9,0.2,1.7,0.3,2.4,0.3c0.7,0,1.5-0.1,2.2-0.3c0.7-0.2,1.3-0.6,1.8-1.1
			c0.5-0.5,0.7-1.2,0.7-2.1c0-0.6-0.2-1.2-0.6-1.7c-0.4-0.5-0.9-1-1.6-1.4c-0.7-0.4-1.4-0.8-2.2-1.1c-0.9-0.4-1.9-0.8-2.9-1.3
			c-1-0.5-1.9-1.1-2.8-1.7c-0.9-0.7-1.6-1.5-2.1-2.5c-0.5-1-0.8-2.3-0.8-3.7c0-1.8,0.4-3.3,1.2-4.6c0.8-1.3,1.9-2.3,3.4-3.1
			c1.4-0.8,3.1-1.2,5-1.3c2.5,0,4.5,0.3,6,0.9c1.5,0.6,2.9,1.3,4.2,2.1L344.7,393.1z"/>
		<path class="st1" d="M388.1,401.1c0-2.1,0.4-4.1,1.2-6c0.8-1.9,1.9-3.6,3.4-5c1.4-1.5,3.1-2.6,5-3.4c1.9-0.8,3.9-1.3,6.1-1.3
			c2.1,0,4.2,0.4,6.1,1.3c1.9,0.8,3.6,2,5,3.4c1.5,1.5,2.6,3.1,3.4,5c0.8,1.9,1.2,3.9,1.2,6c0,2.2-0.4,4.2-1.2,6.1
			c-0.8,1.9-2,3.6-3.4,5c-1.5,1.4-3.1,2.6-5,3.4c-1.9,0.8-3.9,1.2-6.1,1.2c-2.2,0-4.2-0.4-6.1-1.2c-1.9-0.8-3.6-1.9-5-3.4
			c-1.4-1.4-2.6-3.1-3.4-5C388.5,405.3,388.1,403.3,388.1,401.1z M394.4,401.1c0,1.4,0.2,2.6,0.7,3.8c0.5,1.2,1.2,2.2,2,3.1
			c0.9,0.9,1.9,1.6,3,2.1c1.2,0.5,2.4,0.8,3.8,0.8c1.3,0,2.5-0.3,3.7-0.8c1.1-0.5,2.1-1.2,2.9-2.1c0.8-0.9,1.5-1.9,2-3.1
			c0.5-1.2,0.7-2.5,0.7-3.8c0-1.4-0.2-2.7-0.7-3.9c-0.5-1.2-1.2-2.2-2-3.2c-0.8-0.9-1.8-1.6-3-2.1c-1.1-0.5-2.4-0.8-3.7-0.8
			c-1.3,0-2.6,0.2-3.7,0.8c-1.1,0.5-2.1,1.2-3,2.1c-0.9,0.9-1.5,2-2,3.2C394.6,398.4,394.4,399.7,394.4,401.1z"/>
	</g>
</g>
</svg>
